<svg xmlns="http://www.w3.org/2000/svg" viewBox="0 0 512 512"><defs><style>.cls-1{fill:#414d9c;}.cls-2{fill:#fff;}</style></defs><title>Fichier 3</title><g id="Calque_2" data-name="Calque 2"><g id="Calque_1-2" data-name="Calque 1"><circle class="cls-1" cx="256" cy="256" r="256"/><path class="cls-2" d="M89.32,301.18V228.66a8.92,8.92,0,0,0-8.91-8.92H70.66a8.91,8.91,0,0,1-8.91-8.91h0a8.91,8.91,0,0,1,8.91-8.92h62.15a8.91,8.91,0,0,1,8.91,8.92h0a8.91,8.91,0,0,1-8.91,8.91h-9.75a8.92,8.92,0,0,0-8.92,8.92v72.52a8.91,8.91,0,0,1-8.91,8.92h-7A8.92,8.92,0,0,1,89.32,301.18Z"/><path class="cls-2" d="M263.69,301.18V210.82a8.91,8.91,0,0,1,8.91-8.92h33.26c19.63,0,35.69,5.68,35.69,27.9v12.33a25.73,25.73,0,0,1-6.8,18,9.17,9.17,0,0,0-2.34,7.61l5.3,32a8.91,8.91,0,0,1-8.79,10.38h-7a8.92,8.92,0,0,1-8.8-7.51L309.19,278a8.9,8.9,0,0,0-8.82-7.51H297.1a8.92,8.92,0,0,0-8.92,8.91v21.75a8.91,8.91,0,0,1-8.91,8.92H272.6A8.91,8.91,0,0,1,263.69,301.18Zm24.49-57.09a8.91,8.91,0,0,0,8.91,8.91h8.12c6.33,0,12.17-1.3,12.17-10.87V230c0-9.9-6.17-11.2-12.17-11.2h-8.12a8.91,8.91,0,0,0-8.91,8.92Z"/><path class="cls-2" d="M235.52,298.86l-24.39-90.37a8.9,8.9,0,0,0-8.6-6.59H181.18a8.91,8.91,0,0,0-8.61,6.64l-23.85,90.37a8.92,8.92,0,0,0,8.62,11.19h5.06a8.91,8.91,0,0,0,8.67-6.86l3.25-13.7a8.91,8.91,0,0,1,8.67-6.86h18.42a8.9,8.9,0,0,1,8.65,6.77l3.45,13.88a8.92,8.92,0,0,0,8.65,6.77h4.76A8.91,8.91,0,0,0,235.52,298.86ZM201,244.09a8.92,8.92,0,0,1-17.83,0v-16.4a8.92,8.92,0,1,1,17.83,0Z"/><path class="cls-2" d="M449.94,298.86l-24.39-90.37a8.91,8.91,0,0,0-8.6-6.59H395.6a8.92,8.92,0,0,0-8.62,6.64l-23.84,90.37a8.92,8.92,0,0,0,8.62,11.19h5.06a8.91,8.91,0,0,0,8.67-6.86l3.24-13.7a8.93,8.93,0,0,1,8.68-6.86h18.42a8.91,8.91,0,0,1,8.65,6.77l3.45,13.88a8.92,8.92,0,0,0,8.65,6.77h4.75A8.92,8.92,0,0,0,449.94,298.86Zm-34.48-54.77a8.92,8.92,0,0,1-17.83,0v-16.4a8.92,8.92,0,1,1,17.83,0Z"/><path class="cls-2" d="M263.69,168.66v-6.51a8.91,8.91,0,0,1,8.91-8.91H441.34a8.91,8.91,0,0,1,8.91,8.91v6.51a8.91,8.91,0,0,1-8.91,8.91H272.6A8.91,8.91,0,0,1,263.69,168.66Z"/><path class="cls-2" d="M61.75,349.85v-6.51a8.91,8.91,0,0,1,8.91-8.91H441.34a8.91,8.91,0,0,1,8.91,8.91v6.51a8.91,8.91,0,0,1-8.91,8.91H70.66A8.91,8.91,0,0,1,61.75,349.85Z"/></g></g></svg>