<svg fill="white" height="512pt" viewBox="0 -31 512.0005 512" width="512pt" xmlns="http://www.w3.org/2000/svg"><path d="m507.605469 169.394531c-5.855469-5.859375-15.355469-5.859375-21.210938 0l-34.394531 34.394531-34.394531-34.394531c-5.855469-5.859375-15.355469-5.859375-21.210938 0-5.859375 5.855469-5.859375 15.355469 0 21.210938l34.390625 34.394531-34.390625 34.394531c-5.859375 5.855469-5.859375 15.355469 0 21.210938 5.855469 5.859375 15.355469 5.859375 21.210938 0l34.394531-34.390625 34.394531 34.390625c5.855469 5.859375 15.355469 5.859375 21.210938 0 5.859375-5.855469 5.859375-15.351563 0-21.210938l-34.390625-34.394531 34.390625-34.394531c5.859375-5.855469 5.859375-15.355469 0-21.210938zm0 0"/><path d="m62.203125 298.886719c5.867187 18.035156 22.828125 31.113281 42.796875 31.113281h85.890625l141.109375 83.550781v21.449219c0 8.285156 6.714844 15 15 15s15-6.714844 15-15v-420c0-8.285156-6.714844-15-15-15s-15 6.714844-15 15v21.449219l-141.109375 83.550781h-85.890625c-19.96875 0-36.929688 13.078125-42.796875 31.117188-35.277344 6.09375-62.203125 36.890624-62.203125 73.882812s26.925781 67.792969 62.203125 73.886719zm269.796875 79.800781-122-72.238281v-162.898438l122-72.238281zm-227-228.6875h75v150h-75c-8.269531 0-15-6.730469-15-15v-120c0-8.269531 6.730469-15 15-15zm-45 32.582031v84.839844c-17.460938-6.195313-30-22.867187-30-42.421875s12.539062-36.226562 30-42.417969zm0 0"/></svg>