<svg fill="white" height="512pt" viewBox="0 -31 512 512" width="512pt" xmlns="http://www.w3.org/2000/svg"><path d="m482 225c0 35.992188-14.0625 69.875-39.59375 95.40625-5.855469 5.859375-5.855469 15.355469 0 21.214844 5.859375 5.855468 15.355469 5.859375 21.214844 0 31.195312-31.195313 48.378906-72.613282 48.378906-116.621094s-17.183594-85.421875-48.378906-116.621094c-5.855469-5.859375-15.355469-5.859375-21.214844 0-5.855469 5.859375-5.855469 15.355469 0 21.214844 25.53125 25.53125 39.59375 59.414062 39.59375 95.40625zm0 0"/><path d="m400.003906 299.21875c5.855469 5.855469 15.355469 5.855469 21.214844 0 19.847656-19.851562 30.78125-46.207031 30.78125-74.21875s-10.933594-54.367188-30.78125-74.21875c-5.859375-5.855469-15.355469-5.855469-21.214844 0-5.859375 5.859375-5.859375 15.355469 0 21.214844 14.183594 14.183594 21.996094 33.007812 21.996094 53.003906s-7.8125 38.820312-21.996094 53.003906c-5.859375 5.859375-5.859375 15.355469 0 21.214844zm0 0"/><path d="m62.203125 298.886719c5.867187 18.035156 22.828125 31.113281 42.796875 31.113281h85.890625l141.109375 83.550781v21.449219c0 8.285156 6.714844 15 15 15s15-6.714844 15-15v-420c0-8.285156-6.714844-15-15-15s-15 6.714844-15 15v21.449219l-141.109375 83.550781h-85.890625c-19.96875 0-36.929688 13.078125-42.796875 31.113281-35.277344 6.09375-62.203125 36.894531-62.203125 73.886719s26.925781 67.792969 62.203125 73.886719zm269.796875 79.800781-122-72.238281v-162.898438l122-72.238281zm-227-228.6875h75v150h-75c-8.269531 0-15-6.730469-15-15v-120c0-8.269531 6.730469-15 15-15zm-45 32.578125v84.839844c-17.460938-6.191407-30-22.863281-30-42.417969s12.539062-36.226562 30-42.421875zm0 0"/></svg>